<svg id="Layer_1" data-name="Layer 1" xmlns="http://www.w3.org/2000/svg" viewBox="0 0 57.71 72.48"><defs><style>.cls-1{fill:#006db5;}</style></defs><title>вафвафыафы</title><path class="cls-1" d="M17.55,14.29h.1c.07-.08.16-.14.12-.26a1.32,1.32,0,0,0,.3-1.26c-.09-.2-.29-.19-.48-.17a.56.56,0,0,1-.37-.05v-.13L13.72,11a9.49,9.49,0,0,0-.84-2c-.1-1.52-1.41-2.54-1.39-4a.54.54,0,0,1,.64-.21.81.81,0,0,0,.38,0,.39.39,0,0,0,.19-.49c.07-.05.09-.2.21-.21,0-.35-.05-.74.38-.84a2.57,2.57,0,0,1-.4-.87c.26-.51-.09-1.18-.07-1.72A4.67,4.67,0,0,0,11.13,0a1.2,1.2,0,0,0-.77.32A2.47,2.47,0,0,0,9.62,2a7.49,7.49,0,0,0,.27,1.83c-.16.15-.16.55-.47.39L8.13,5.79C6.77,7,4.86,8.19,4.63,10.23a41,41,0,0,1,.1,4.58h.18a.38.38,0,0,1,.28,0l-.05.08h0a1,1,0,0,1,0,.25h.11c.23.48,0,1.17.16,1.69.13.17.08.54.35.55,0-.06,0-.14,0-.19l.24.43c.14.07.15-.12.22-.19s0,.21.06.31.12.16.24.12l.06-1.32a5.52,5.52,0,0,1,.21,1.31h.12c.2-.19.09-.51.12-.77A5.84,5.84,0,0,0,6.75,15a.33.33,0,0,0,.12-.33c.07,0,.09-.14.18-.12a35.13,35.13,0,0,0,.16-4.34l.47-.39a15.41,15.41,0,0,1-.25,6A1.85,1.85,0,0,1,7.53,17v.75h.06v-.34c0,.74-.23,1.66.31,2A39.25,39.25,0,0,1,7.61,25C6.47,27.76,4.72,30.52,5,33.63H6.31l.14-.31C7.64,33.48,9,33.8,10,33c-.13-.65-1.07-.35-1.54-.66a1.9,1.9,0,0,1-.65-.47l-.22,0a17.07,17.07,0,0,1,1.65-3.91c1.78-2.26,1.68-5.29,2-8.15a.28.28,0,0,1,.3-.14h.29c.36,0,.79,0,.69-.4,1.72.13,3.13,1,4.84,1.23,0,.18-.15.33-.2.5,0,.45,0,.88-.06,1.31v.33a21.59,21.59,0,0,0,.39,5.58l1.2,0,.12-.31c1.14-.08,2.48.05,3.54-.69-.2-.63-1.12-.23-1.62-.5-.28-.14-.68-.28-.8-.61a30.35,30.35,0,0,1,.44-6.8c-1.7-2.28-4.1-2.76-6.24-3.88.09-.26,0-.19.15-.42-.57,0-.91-.46-1.4-.3a4.79,4.79,0,0,1,0-1.81c.16.12.34.18.45.36a33.3,33.3,0,0,1,3.4,1l.4-.27"/><path class="cls-1" d="M.09,33.6V57.07H13.21V33.6ZM10.31,51.75A2.56,2.56,0,0,1,9,52.89a5.11,5.11,0,0,1-2.25.47,4.94,4.94,0,0,1-2.39-.54,2.53,2.53,0,0,1-1.3-1.35,6.84,6.84,0,0,1-.31-2.34v-.88H6v1.64a2,2,0,0,0,.14,1,.51.51,0,0,0,.48.22.56.56,0,0,0,.52-.28A1.58,1.58,0,0,0,7.32,50,2.56,2.56,0,0,0,7,48.44a9.77,9.77,0,0,0-1.64-1.23A15.26,15.26,0,0,1,3.63,46a2.89,2.89,0,0,1-.7-1.08,4.67,4.67,0,0,1-.28-1.76,4.77,4.77,0,0,1,.4-2.26,2.61,2.61,0,0,1,1.27-1.12,5.09,5.09,0,0,1,2.13-.41,5.42,5.42,0,0,1,2.32.45A2.4,2.4,0,0,1,10,40.88a5.85,5.85,0,0,1,.32,2.28v.53H7.11v-1A2,2,0,0,0,7,41.8a.47.47,0,0,0-.41-.19.53.53,0,0,0-.48.26,1.47,1.47,0,0,0-.16.78,2.27,2.27,0,0,0,.18,1,2.6,2.6,0,0,0,1,.82A9.8,9.8,0,0,1,10,46.77a5.22,5.22,0,0,1,.61,2.86A5.08,5.08,0,0,1,10.31,51.75Z"/><path class="cls-1" d="M14.9,28.3V57.07H28V28.3ZM25.45,42.12H23.28V53.36H19.62V42.12H17.46V39.31h8Z"/><path class="cls-1" d="M29.72,22.83V57.07H42.84V22.83Zm9.52,30.53h-6v-14h6v2.47H36.75v2.77h2.47v2.88H36.75v3.11h2.49Z"/><path class="cls-1" d="M50.77,41.71v3.58H51a.86.86,0,0,0,.7-.24,1.83,1.83,0,0,0,.2-1V42.86a1.37,1.37,0,0,0-.23-.94,1.45,1.45,0,0,0-.94-.21"/><path class="cls-1" d="M44.5,57.07H57.62V17.52H44.5ZM55,44.46a5.17,5.17,0,0,1-.28,2,2,2,0,0,1-1,.95,4.84,4.84,0,0,1-1.94.33h-1v5.66H47.43V39.3H50.8a8.48,8.48,0,0,1,2.3.24,2.51,2.51,0,0,1,1.2.67,2.32,2.32,0,0,1,.55,1.08,9.19,9.19,0,0,1,.15,2Z"/><path class="cls-1" d="M6.2,60,8,72.22H4.78L4.6,70H3.47l-.19,2.19H0L1.62,60ZM4.52,67.87c-.16-1.39-.32-3.09-.48-5.13-.32,2.34-.53,4.05-.61,5.13Z"/><path class="cls-1" d="M16,65.33H12.79V63.21a3.73,3.73,0,0,0-.1-1.15.45.45,0,0,0-.45-.23.47.47,0,0,0-.5.28,4.29,4.29,0,0,0-.1,1.2V69a4,4,0,0,0,.1,1.16.46.46,0,0,0,.48.27.44.44,0,0,0,.46-.27,4.19,4.19,0,0,0,.11-1.28V67.33H16v.48a9.31,9.31,0,0,1-.26,2.68,2.78,2.78,0,0,1-1.19,1.39,4,4,0,0,1-2.25.6A4.63,4.63,0,0,1,10,72a2.47,2.47,0,0,1-1.2-1.39,9.13,9.13,0,0,1-.29-2.69V64.32a15.88,15.88,0,0,1,.09-2,2.73,2.73,0,0,1,.54-1.27,3,3,0,0,1,1.24-1,4.56,4.56,0,0,1,1.83-.35,4.49,4.49,0,0,1,2.31.55,2.58,2.58,0,0,1,1.2,1.35A8.18,8.18,0,0,1,16,64.17Z"/><path class="cls-1" d="M22.59,60l1.81,12.2H21.16L21,70H19.85l-.19,2.19H16.38L18,60Zm-1.68,7.85c-.17-1.39-.33-3.09-.49-5.13-.32,2.34-.52,4.05-.61,5.13Z"/><path class="cls-1" d="M24.94,60h2.37a14.8,14.8,0,0,1,3.11.21,2.32,2.32,0,0,1,1.23.7A2.09,2.09,0,0,1,32.18,62a16,16,0,0,1,.11,2.32V68.6a9.36,9.36,0,0,1-.16,2.19,1.63,1.63,0,0,1-.54.87,2.26,2.26,0,0,1-.95.44,8.79,8.79,0,0,1-1.7.12h-4Zm3.17,2.09v8c.46,0,.74-.09.85-.27a4.23,4.23,0,0,0,.15-1.5V63.62a6,6,0,0,0-.05-1.06.48.48,0,0,0-.24-.34,1.45,1.45,0,0,0-.71-.11"/><polygon class="cls-1" points="33.47 60.02 38.76 60.02 38.76 62.46 36.64 62.46 36.64 64.78 38.63 64.78 38.63 67.1 36.64 67.1 36.64 69.78 38.97 69.78 38.97 72.22 33.47 72.22 33.47 60.02"/><path class="cls-1" d="M49.67,60v12.2H46.9V64l-1.1,8.24h-2l-1.16-8v8H39.88V60H44c.12.73.25,1.6.37,2.59l.46,3.11.72-5.7Z"/><path class="cls-1" d="M57.71,60l-2.32,7.79v4.41H52.45V67.81L50.22,60h2.92c.45,2.38.71,4,.77,4.81.17-1.3.47-2.91.88-4.81Z"/></svg>